<svg xmlns="http://www.w3.org/2000/svg" xmlns:xlink="http://www.w3.org/1999/xlink" width="50" zoomAndPan="magnify" viewBox="0 0 37.5 37.499999" height="50" preserveAspectRatio="xMidYMid meet" version="1.0"><defs><g><g id="id1"/></g><clipPath id="id2"><path d="M 5 0 L 37.007812 0 L 37.007812 37.007812 L 5 37.007812 Z M 5 0 " clip-rule="nonzero"/></clipPath></defs><g fill="rgb(100%, 100%, 100%)" fill-opacity="1"><g transform="translate(13.666576, 36.38269)"><g><path d="M 9.914062 0.332031 L 12.824219 0.40625 L 13.5625 0.332031 L 14.296875 0.148438 L 15.035156 0.0351562 L 15.773438 -0.257812 L 16.4375 -0.332031 L 17.136719 -0.664062 L 19.640625 -2.175781 L 20.710938 -3.28125 L 21.078125 -3.796875 L 21.484375 -4.605469 L 21.707031 -5.269531 L 21.925781 -5.894531 L 22.148438 -7.738281 L 22.074219 -8.917969 L 21.523438 -11.054688 L 21.117188 -11.644531 L 20.160156 -12.75 L 19.496094 -13.339844 L 18.90625 -13.636719 L 18.242188 -14.039062 L 15.367188 -14.925781 L 14.628906 -15.035156 L 13.894531 -15.074219 L 13.121094 -15.21875 L 12.050781 -15.21875 L 10.097656 -15.625 L 8.734375 -16.289062 L 8.179688 -16.804688 L 8.035156 -17.910156 L 8.21875 -18.90625 L 8.660156 -19.382812 L 9.214844 -19.789062 L 9.804688 -20.121094 L 10.464844 -20.269531 L 11.644531 -20.304688 L 12.824219 -20.160156 L 13.488281 -19.972656 L 14.152344 -19.53125 L 14.777344 -19.015625 L 15.332031 -18.277344 L 16.140625 -17.800781 L 17.875 -17.945312 L 18.867188 -17.875 L 19.605469 -17.875 L 20.269531 -17.800781 L 20.96875 -18.316406 L 21.265625 -18.941406 L 21.117188 -19.640625 L 21.042969 -20.34375 L 20.011719 -22.257812 L 19.199219 -23.363281 L 16.769531 -25.058594 L 14.703125 -25.761719 L 13.265625 -26.054688 L 10.429688 -26.128906 L 9.617188 -25.90625 L 8.882812 -25.871094 L 8.21875 -25.761719 L 6.816406 -25.316406 L 5.566406 -24.582031 L 3.796875 -23.363281 L 2.507812 -21.632812 L 1.84375 -19.605469 L 1.730469 -17.800781 L 1.769531 -16.65625 L 2.027344 -15.183594 L 2.617188 -13.894531 L 3.980469 -12.199219 L 6.484375 -10.835938 L 7.8125 -10.390625 L 13.597656 -9.730469 L 14.925781 -9.101562 L 15.40625 -8.660156 L 15.625 -7.738281 L 15.332031 -6.816406 L 14.851562 -6.265625 L 13.597656 -5.710938 L 12.457031 -5.636719 L 11.792969 -5.527344 L 9.914062 -5.710938 L 9.285156 -6.042969 L 8.660156 -6.449219 L 7.445312 -7.777344 L 6.707031 -8.070312 L 6.042969 -7.996094 L 5.34375 -8.109375 L 2.507812 -7.960938 L 1.84375 -7.664062 L 1.546875 -6.890625 L 1.660156 -6.15625 L 1.804688 -5.417969 L 2.027344 -4.753906 L 2.726562 -3.390625 L 3.242188 -2.910156 L 3.722656 -2.359375 L 5.011719 -1.546875 L 5.527344 -0.996094 L 6.226562 -0.664062 L 6.964844 -0.441406 L 8.402344 0.0742188 Z M 9.914062 0.332031 "/></g></g></g><g clip-path="url(#id2)"><path stroke-linecap="butt" transform="matrix(0.913777, 0, 0, 0.913777, 12.037796, 3.685507)" fill="none" stroke-linejoin="miter" d="M 10.850934 34.363357 L 14.031416 34.444579 L 14.839361 34.363357 L 15.647306 34.158165 L 16.450976 34.03847 L 17.258921 33.713582 L 17.989919 33.636634 L 18.755116 33.273273 L 21.495289 31.618909 L 22.666596 30.404854 L 23.068431 29.84485 L 23.513015 28.959958 L 23.760955 28.22896 L 23.996072 27.54926 L 24.239738 25.531535 L 24.154241 24.240533 L 23.551488 21.897919 L 23.106905 21.260968 L 22.063843 20.046913 L 21.33712 19.397137 L 20.687344 19.072249 L 19.969171 18.63194 L 16.818613 17.665826 L 16.010668 17.546131 L 15.202723 17.507657 L 14.356304 17.340938 L 13.184997 17.340938 L 11.047577 16.896355 L 9.559932 16.178181 L 8.948629 15.605353 L 8.794735 14.395572 L 8.991378 13.314037 L 9.482984 12.792507 L 10.081462 12.339374 L 10.731238 11.984562 L 11.449412 11.817843 L 12.740414 11.775094 L 14.031416 11.933264 L 14.758139 12.142731 L 15.489137 12.625788 L 16.168837 13.185792 L 16.775864 13.993737 L 17.665031 14.523818 L 19.563061 14.357099 L 20.648871 14.434046 L 21.456816 14.434046 L 22.183539 14.523818 L 22.95301 13.955264 L 23.265074 13.275564 L 23.106905 12.506092 L 23.029958 11.736621 L 21.897125 9.641948 L 21.012232 8.427893 L 18.353281 6.576887 L 16.087615 5.81169 L 14.523023 5.486802 L 11.410938 5.40558 L 10.526046 5.653521 L 9.718101 5.691995 L 8.991378 5.81169 L 7.465259 6.294747 L 6.084485 7.098418 L 4.156532 8.427893 L 2.745834 10.330198 L 2.019111 12.544566 L 1.899415 14.523818 L 1.937889 15.776346 L 2.215754 17.379412 L 2.86553 18.798659 L 4.353175 20.649666 L 7.097623 22.14586 L 8.546794 22.628917 L 14.877835 23.35564 L 16.335556 24.03534 L 16.857086 24.518397 L 17.100752 25.531535 L 16.775864 26.536123 L 16.254334 27.147425 L 14.877835 27.745903 L 13.625306 27.827125 L 12.907133 27.95537 L 10.850934 27.745903 L 10.162684 27.382541 L 9.482984 26.942232 L 8.140684 25.493061 L 7.337014 25.168173 L 6.614566 25.24512 L 5.849369 25.1297 L 2.745834 25.287869 L 2.019111 25.612757 L 1.694223 26.459175 L 1.809644 27.26712 L 1.980637 28.070791 L 2.215754 28.801789 L 2.985225 30.289433 L 3.545229 30.810964 L 4.07531 31.422266 L 5.486008 32.307159 L 6.046012 32.905637 L 6.815483 33.273273 L 7.619154 33.516939 L 9.19657 34.076943 Z M 10.850934 34.363357 " stroke="rgb(96.859741%, 70.199585%, 16.859436%)" stroke-width="1.638516" stroke-opacity="1" stroke-miterlimit="4"/></g><g fill="rgb(100%, 87.449646%, 16.859436%)" fill-opacity="1"><g transform="translate(5.012649, 19.515657)"><g><path d="M 12.359375 -18.921875 C 12.535156 -18.921875 12.675781 -18.867188 12.78125 -18.765625 C 12.894531 -18.660156 12.953125 -18.523438 12.953125 -18.359375 L 12.875 -15.125 C 12.832031 -14.78125 12.660156 -14.597656 12.359375 -14.578125 L 4.890625 -13.796875 L 4.703125 -11.546875 L 10.296875 -11.84375 L 10.296875 -9.171875 L 10.40625 -9.171875 L 10.40625 -11.84375 C 10.550781 -11.84375 10.679688 -11.785156 10.796875 -11.671875 C 10.910156 -11.566406 10.96875 -11.441406 10.96875 -11.296875 L 10.96875 -8.46875 C 10.96875 -8.164062 10.816406 -7.984375 10.515625 -7.921875 L 4.5625 -7.140625 L 4.421875 -4.890625 L 11.671875 -5.109375 C 11.835938 -5.109375 11.972656 -5.050781 12.078125 -4.9375 C 12.191406 -4.832031 12.25 -4.707031 12.25 -4.5625 L 12.25 -1.140625 C 12.25 -0.796875 12.078125 -0.613281 11.734375 -0.59375 L 0.296875 0 C 0.128906 0 -0.00390625 -0.046875 -0.109375 -0.140625 C -0.210938 -0.242188 -0.265625 -0.382812 -0.265625 -0.5625 C -0.234375 -3.25 -0.15625 -6.039062 -0.03125 -8.9375 C 0.09375 -11.59375 0.320312 -14.585938 0.65625 -17.921875 C 0.707031 -18.242188 0.882812 -18.40625 1.1875 -18.40625 Z M 4.609375 -18.328125 L 4.671875 -18.328125 L 4.671875 -18.40625 L 4.609375 -18.40625 Z M 6.375 -18.171875 C 6.363281 -18.148438 6.359375 -18.132812 6.359375 -18.125 C 6.367188 -18.113281 6.394531 -18.109375 6.4375 -18.109375 C 6.394531 -18.109375 6.375 -18.128906 6.375 -18.171875 Z M 6.890625 -17.703125 C 6.929688 -17.742188 6.953125 -17.78125 6.953125 -17.8125 C 6.953125 -17.882812 6.898438 -17.921875 6.796875 -17.921875 C 6.679688 -17.921875 6.597656 -17.882812 6.546875 -17.8125 L 6.46875 -17.703125 C 6.519531 -17.742188 6.546875 -17.78125 6.546875 -17.8125 L 6.6875 -17.84375 C 6.789062 -17.820312 6.84375 -17.773438 6.84375 -17.703125 L 6.84375 -17.59375 C 6.84375 -17.632812 6.859375 -17.671875 6.890625 -17.703125 Z M 10.96875 -17.890625 L 10.921875 -17.890625 L 10.921875 -17.8125 L 10.96875 -17.8125 Z M 3.265625 -17.734375 L 3.828125 -17.734375 L 3.828125 -17.8125 L 3.265625 -17.8125 Z M 5.21875 -17.8125 L 4.828125 -17.8125 L 4.828125 -17.78125 L 4.78125 -17.78125 C 4.6875 -17.75 4.640625 -17.722656 4.640625 -17.703125 L 4.828125 -17.703125 L 4.859375 -17.734375 L 5.21875 -17.734375 Z M 4.3125 -17.703125 L 4.40625 -17.703125 L 4.40625 -17.765625 L 4.3125 -17.765625 Z M 8.828125 -17.703125 L 8.609375 -17.703125 L 8.609375 -17.59375 L 8.828125 -17.59375 Z M 5.59375 -17.59375 C 5.5625 -17.59375 5.546875 -17.550781 5.546875 -17.46875 C 5.546875 -17.46875 5.582031 -17.5 5.65625 -17.5625 C 5.707031 -17.625 5.6875 -17.632812 5.59375 -17.59375 Z M 7.390625 -17.515625 L 7.28125 -17.515625 L 7.28125 -17.46875 L 7.390625 -17.46875 Z M 3.015625 -17.046875 L 3.046875 -16.953125 L 3.046875 -16.890625 L 3.15625 -16.890625 C 3.15625 -16.910156 3.171875 -16.9375 3.203125 -16.96875 C 3.242188 -17.007812 3.265625 -17.03125 3.265625 -17.03125 Z M 6.328125 -16.671875 C 6.234375 -16.710938 6.1875 -16.75 6.1875 -16.78125 L 6.1875 -16.8125 L 6.328125 -16.953125 L 6.21875 -16.890625 L 6.171875 -16.890625 C 6.148438 -16.890625 6.132812 -16.882812 6.125 -16.875 C 6.113281 -16.863281 6.097656 -16.859375 6.078125 -16.859375 L 6.03125 -16.859375 C 5.9375 -16.828125 5.863281 -16.753906 5.8125 -16.640625 L 5.859375 -16.59375 L 6.1875 -16.59375 C 6.207031 -16.59375 6.222656 -16.597656 6.234375 -16.609375 C 6.242188 -16.617188 6.25 -16.625 6.25 -16.625 L 6.265625 -16.625 Z M 7.25 -16.59375 L 7.28125 -16.59375 L 7.3125 -16.5625 L 7.328125 -16.640625 L 7.25 -16.640625 Z M 5.703125 -16.40625 L 5.65625 -16.5625 C 5.507812 -16.507812 5.4375 -16.457031 5.4375 -16.40625 C 5.488281 -16.382812 5.523438 -16.382812 5.546875 -16.40625 Z M 6.890625 -16.1875 C 6.890625 -16.21875 6.847656 -16.269531 6.765625 -16.34375 L 6.6875 -16.1875 Z M 8.015625 -16.15625 C 8.015625 -16.175781 7.992188 -16.203125 7.953125 -16.234375 L 7.90625 -16.296875 C 7.757812 -16.242188 7.6875 -16.1875 7.6875 -16.125 Z M 6.1875 -16.125 C 6.082031 -16.1875 6.003906 -16.21875 5.953125 -16.21875 C 5.859375 -16.21875 5.8125 -16.171875 5.8125 -16.078125 L 5.953125 -16 L 6.03125 -15.96875 L 6.0625 -15.96875 C 6.09375 -15.96875 6.109375 -15.992188 6.109375 -16.046875 Z M 7.25 -15.90625 C 7.289062 -15.875 7.335938 -15.875 7.390625 -15.90625 C 7.390625 -16.019531 7.351562 -16.085938 7.28125 -16.109375 L 7.0625 -16.046875 L 7.109375 -15.90625 Z M 1.546875 -16 L 1.515625 -16 L 1.46875 -15.96875 L 1.515625 -15.9375 Z M 6.59375 -15.75 C 6.65625 -15.75 6.6875 -15.785156 6.6875 -15.859375 C 6.6875 -15.929688 6.640625 -15.96875 6.546875 -15.96875 L 6.484375 -15.9375 L 6.46875 -15.9375 L 6.4375 -15.90625 C 6.394531 -15.875 6.375 -15.84375 6.375 -15.8125 L 6.40625 -15.75 Z M 10.640625 -15.9375 L 10.59375 -15.9375 L 10.59375 -15.8125 L 10.640625 -15.8125 Z M 6.546875 -14.609375 L 6.484375 -14.609375 L 6.484375 -14.53125 L 6.546875 -14.53125 Z M 4.34375 -14.53125 C 4.3125 -14.53125 4.296875 -14.503906 4.296875 -14.453125 L 4.34375 -14.453125 L 4.375 -14.46875 C 4.351562 -14.46875 4.34375 -14.488281 4.34375 -14.53125 Z M 4.1875 -13.203125 C 4.144531 -13.160156 4.125 -13.140625 4.125 -13.140625 L 4.265625 -13.109375 C 4.285156 -13.128906 4.285156 -13.175781 4.265625 -13.25 C 4.242188 -13.25 4.21875 -13.234375 4.1875 -13.203125 Z M 4.3125 -12.65625 L 4.34375 -12.6875 L 4.203125 -12.703125 L 4.203125 -12.6875 Z M 4.484375 -11.5625 L 4.609375 -11.5625 L 4.609375 -11.703125 L 4.484375 -11.703125 Z M 4.5625 -11.21875 C 4.507812 -11.21875 4.472656 -11.226562 4.453125 -11.25 L 4.34375 -11.265625 L 4.3125 -11.25 C 4.257812 -11.226562 4.234375 -11.191406 4.234375 -11.140625 C 4.234375 -11.046875 4.304688 -11 4.453125 -11 C 4.503906 -11 4.539062 -11.007812 4.5625 -11.03125 Z M 6.625 -11.046875 L 6.65625 -11.046875 L 6.65625 -11.078125 Z M 10.515625 -10.703125 C 10.566406 -10.703125 10.609375 -10.691406 10.640625 -10.671875 L 10.78125 -10.640625 L 10.890625 -10.78125 L 10.890625 -11 C 10.867188 -11.019531 10.835938 -11.035156 10.796875 -11.046875 C 10.753906 -11.066406 10.710938 -11.078125 10.671875 -11.078125 L 10.515625 -10.96875 Z M 6.765625 -11.03125 L 6.8125 -11.046875 L 6.765625 -11.046875 Z M 6.0625 -10.75 L 6.1875 -10.640625 C 6.226562 -10.660156 6.25 -10.691406 6.25 -10.734375 C 6.257812 -10.785156 6.25 -10.816406 6.21875 -10.828125 Z M 6.765625 -10.734375 L 6.875 -10.671875 L 6.921875 -10.828125 L 6.8125 -10.828125 Z M 5.15625 -10.53125 C 5.269531 -10.570312 5.269531 -10.628906 5.15625 -10.703125 Z M 4.75 -10.375 L 4.859375 -10.265625 L 5 -10.234375 L 5.03125 -10.265625 L 5.078125 -10.265625 L 5.078125 -10.40625 C 5.003906 -10.40625 4.953125 -10.421875 4.921875 -10.453125 L 4.859375 -10.421875 C 4.859375 -10.421875 4.851562 -10.414062 4.84375 -10.40625 C 4.832031 -10.40625 4.828125 -10.40625 4.828125 -10.40625 Z M 6.0625 -10.40625 L 6.109375 -10.296875 L 6.296875 -10.296875 L 6.21875 -10.34375 L 6.109375 -10.421875 Z M 4.265625 -10.3125 C 4.242188 -10.332031 4.207031 -10.351562 4.15625 -10.375 C 4.101562 -10.394531 4.054688 -10.40625 4.015625 -10.40625 C 4.015625 -10.363281 4.039062 -10.328125 4.09375 -10.296875 C 4.132812 -10.253906 4.21875 -10.234375 4.34375 -10.234375 L 4.421875 -10.234375 L 4.421875 -10.3125 Z M 6 -10 L 6.21875 -10 C 6.25 -10.007812 6.265625 -10.035156 6.265625 -10.078125 L 6.265625 -10.1875 L 6.0625 -10.1875 L 6.03125 -10.078125 Z M 4.078125 -9.828125 C 4.078125 -9.804688 4.078125 -9.789062 4.078125 -9.78125 C 4.085938 -9.78125 4.101562 -9.785156 4.125 -9.796875 L 4.203125 -9.828125 L 4.15625 -9.859375 L 4.125 -9.859375 C 4.09375 -9.859375 4.078125 -9.847656 4.078125 -9.828125 Z M 3.75 -9.3125 C 3.84375 -9.3125 3.90625 -9.332031 3.9375 -9.375 C 3.90625 -9.375 3.867188 -9.390625 3.828125 -9.421875 L 3.796875 -9.453125 L 3.671875 -9.453125 C 3.609375 -9.398438 3.578125 -9.34375 3.578125 -9.28125 Z M 4.125 -9.171875 C 4.03125 -9.171875 3.90625 -9.191406 3.75 -9.234375 L 3.671875 -9.171875 L 3.75 -9.0625 C 3.78125 -9.15625 3.828125 -9.1875 3.890625 -9.15625 C 3.992188 -9.15625 4.070312 -9.160156 4.125 -9.171875 Z M 2.953125 -9.171875 C 2.898438 -9.160156 2.875 -9.125 2.875 -9.0625 L 2.953125 -9.015625 L 3.0625 -9.046875 C 3.0625 -9.078125 3.09375 -9.101562 3.15625 -9.125 L 3.0625 -9.15625 Z M 10.34375 -8.453125 L 10.453125 -8.578125 L 10.515625 -8.6875 L 10.453125 -8.875 C 10.429688 -8.894531 10.394531 -8.976562 10.34375 -9.125 Z M 4.09375 -8.6875 C 4.09375 -8.726562 4.148438 -8.820312 4.265625 -8.96875 L 4.15625 -8.984375 L 4.046875 -8.984375 C 3.992188 -8.984375 3.941406 -8.96875 3.890625 -8.9375 L 3.671875 -8.859375 C 3.722656 -8.835938 3.769531 -8.816406 3.8125 -8.796875 C 3.863281 -8.773438 3.894531 -8.757812 3.90625 -8.75 C 3.875 -8.65625 3.867188 -8.585938 3.890625 -8.546875 L 4.125 -8.609375 Z M 3.375 -8.75 C 3.425781 -8.707031 3.46875 -8.707031 3.5 -8.75 L 3.46875 -8.765625 L 3.421875 -8.796875 L 3.375 -8.765625 Z M 4.234375 -8.765625 C 4.253906 -8.710938 4.273438 -8.675781 4.296875 -8.65625 C 4.328125 -8.644531 4.367188 -8.640625 4.421875 -8.640625 C 4.441406 -8.640625 4.503906 -8.65625 4.609375 -8.6875 L 4.53125 -8.765625 Z M 3.421875 -8.6875 C 3.316406 -8.632812 3.289062 -8.585938 3.34375 -8.546875 L 3.375 -8.453125 C 3.4375 -8.453125 3.488281 -8.46875 3.53125 -8.5 C 3.53125 -8.570312 3.492188 -8.632812 3.421875 -8.6875 Z M 4.640625 -8.421875 L 4.515625 -8.421875 C 4.453125 -8.421875 4.421875 -8.398438 4.421875 -8.359375 C 4.421875 -8.328125 4.40625 -8.3125 4.375 -8.3125 C 4.375 -8.40625 4.347656 -8.457031 4.296875 -8.46875 L 4.125 -8.46875 C 4.125 -8.4375 4.144531 -8.421875 4.1875 -8.421875 L 4.265625 -8.34375 L 4.078125 -8.25 L 3.9375 -8.140625 C 3.957031 -8.128906 3.976562 -8.125 4 -8.125 C 4.03125 -8.125 4.054688 -8.113281 4.078125 -8.09375 L 4.296875 -8.09375 C 4.367188 -8.09375 4.484375 -8.128906 4.640625 -8.203125 Z M 3.671875 -8.3125 C 3.609375 -8.3125 3.554688 -8.28125 3.515625 -8.21875 C 3.484375 -8.15625 3.46875 -8.09375 3.46875 -8.03125 L 3.46875 -7.90625 C 3.5625 -7.832031 3.644531 -7.796875 3.71875 -7.796875 L 3.796875 -7.796875 L 3.890625 -7.84375 L 3.890625 -8.203125 L 3.78125 -8.28125 Z M 3.234375 -8.171875 C 3.210938 -8.171875 3.179688 -8.15625 3.140625 -8.125 C 3.109375 -8.101562 3.09375 -8.082031 3.09375 -8.0625 C 3.164062 -8.039062 3.226562 -8.039062 3.28125 -8.0625 Z M 9.265625 -8.015625 L 9.59375 -8.015625 L 9.59375 -8.09375 L 9.265625 -8.09375 Z M 4.515625 -7.921875 C 4.546875 -7.921875 4.5625 -7.953125 4.5625 -8.015625 L 4.40625 -8.015625 L 4.34375 -7.921875 Z M 3.015625 -7.90625 C 2.921875 -7.882812 2.875 -7.847656 2.875 -7.796875 L 3.015625 -7.796875 C 3.035156 -7.816406 3.035156 -7.851562 3.015625 -7.90625 Z M 4.265625 -7.734375 C 4.296875 -7.722656 4.347656 -7.71875 4.421875 -7.71875 C 4.421875 -7.769531 4.382812 -7.8125 4.3125 -7.84375 Z M 3.46875 -7.734375 C 3.40625 -7.660156 3.375 -7.609375 3.375 -7.578125 L 3.609375 -7.546875 L 3.671875 -7.65625 C 3.628906 -7.695312 3.609375 -7.722656 3.609375 -7.734375 Z M 3.9375 -7.515625 L 3.90625 -7.6875 C 3.820312 -7.6875 3.78125 -7.648438 3.78125 -7.578125 L 3.78125 -7.46875 Z M 4.453125 -7.46875 C 4.453125 -7.5 4.4375 -7.515625 4.40625 -7.515625 L 4.34375 -7.578125 C 4.3125 -7.554688 4.226562 -7.546875 4.09375 -7.546875 L 3.984375 -7.515625 L 3.9375 -7.5 L 4.078125 -7.390625 C 4.179688 -7.421875 4.242188 -7.4375 4.265625 -7.4375 Z M 4.015625 -7.203125 L 4.09375 -7.25 L 3.890625 -7.3125 L 3.890625 -7.203125 Z M 3.828125 -7.203125 C 3.753906 -7.234375 3.679688 -7.25 3.609375 -7.25 L 3.671875 -7.140625 C 3.742188 -7.140625 3.796875 -7.160156 3.828125 -7.203125 Z M 3.5 -7.03125 C 3.5 -7.007812 3.484375 -6.984375 3.453125 -6.953125 L 3.75 -6.921875 C 3.78125 -6.921875 3.796875 -6.945312 3.796875 -7 Z M 3.234375 -6.84375 C 3.265625 -6.789062 3.316406 -6.765625 3.390625 -6.765625 L 3.28125 -6.984375 L 3.09375 -6.953125 Z M 3.6875 -6.59375 C 3.65625 -6.664062 3.648438 -6.710938 3.671875 -6.734375 C 3.679688 -6.785156 3.679688 -6.820312 3.671875 -6.84375 L 3.578125 -6.765625 C 3.566406 -6.765625 3.5625 -6.742188 3.5625 -6.703125 L 3.5625 -6.59375 Z M 4.234375 -6.65625 C 4.328125 -6.65625 4.375 -6.691406 4.375 -6.765625 L 4.234375 -6.765625 Z M 2.796875 -6.734375 C 2.742188 -6.710938 2.71875 -6.6875 2.71875 -6.65625 L 2.875 -6.59375 C 2.875 -6.632812 2.882812 -6.664062 2.90625 -6.6875 L 2.9375 -6.703125 Z M 3.5625 -6.546875 L 3.5625 -6.4375 L 3.640625 -6.4375 L 3.640625 -6.546875 Z M 3.6875 -6.484375 C 3.6875 -6.453125 3.695312 -6.4375 3.71875 -6.4375 L 3.75 -6.375 L 3.9375 -6.4375 C 3.914062 -6.4375 3.90625 -6.453125 3.90625 -6.484375 L 3.90625 -6.515625 C 3.875 -6.515625 3.847656 -6.507812 3.828125 -6.5 C 3.804688 -6.488281 3.789062 -6.484375 3.78125 -6.484375 Z M 4.125 -6.25 L 3.96875 -6.25 L 3.96875 -6.140625 L 4.125 -6.140625 Z M 2.578125 -6.078125 C 2.546875 -6.023438 2.554688 -5.972656 2.609375 -5.921875 C 2.703125 -5.953125 2.75 -6.003906 2.75 -6.078125 Z M 3.15625 -5.890625 L 3.203125 -5.859375 C 3.242188 -5.859375 3.269531 -5.867188 3.28125 -5.890625 L 3.265625 -6.03125 L 3.203125 -6.03125 C 3.203125 -6.03125 3.195312 -6.023438 3.1875 -6.015625 C 3.175781 -6.003906 3.171875 -6 3.171875 -6 L 3.125 -6 L 3.125 -5.890625 Z M 2.578125 -5.453125 C 2.648438 -5.453125 2.695312 -5.460938 2.71875 -5.484375 C 2.71875 -5.503906 2.722656 -5.519531 2.734375 -5.53125 C 2.742188 -5.539062 2.753906 -5.550781 2.765625 -5.5625 L 2.6875 -5.625 L 2.546875 -5.5625 Z M 3.375 -5.515625 L 3.234375 -5.515625 L 3.234375 -5.484375 L 3.34375 -5.453125 Z M 2.9375 -5.1875 C 2.96875 -5.144531 3.007812 -5.125 3.0625 -5.125 L 3.0625 -5.21875 C 3.0625 -5.21875 3.0625 -5.242188 3.0625 -5.296875 C 3.007812 -5.296875 2.96875 -5.257812 2.9375 -5.1875 Z M 5.328125 -4.15625 L 5.546875 -4.15625 L 5.546875 -4.203125 L 5.328125 -4.203125 Z M 6.40625 -4.125 C 6.3125 -4.070312 6.265625 -4.046875 6.265625 -4.046875 C 6.328125 -4.023438 6.359375 -3.988281 6.359375 -3.9375 L 6.484375 -3.9375 C 6.523438 -3.96875 6.546875 -3.992188 6.546875 -4.015625 L 6.578125 -4.078125 L 6.515625 -4.203125 C 6.515625 -4.191406 6.503906 -4.175781 6.484375 -4.15625 C 6.472656 -4.132812 6.445312 -4.125 6.40625 -4.125 Z M 7.953125 -4.015625 L 8.015625 -4.015625 L 8.03125 -4.078125 L 8.015625 -4.09375 Z M 5.65625 -4.078125 L 5.484375 -4.078125 L 5.484375 -4.015625 L 5.65625 -4.015625 Z M 6.890625 -3.859375 L 7 -3.890625 C 7 -3.898438 6.992188 -3.90625 6.984375 -3.90625 C 6.984375 -3.90625 6.960938 -3.925781 6.921875 -3.96875 Z M 5.328125 -3.796875 L 5.375 -3.75 C 5.46875 -3.78125 5.488281 -3.816406 5.4375 -3.859375 C 5.394531 -3.859375 5.375 -3.847656 5.375 -3.828125 L 5.328125 -3.828125 Z M 6.265625 -3.75 C 6.234375 -3.78125 6.191406 -3.796875 6.140625 -3.796875 L 6.1875 -3.609375 C 6.1875 -3.609375 6.191406 -3.613281 6.203125 -3.625 C 6.210938 -3.632812 6.21875 -3.640625 6.21875 -3.640625 C 6.238281 -3.640625 6.25 -3.65625 6.25 -3.6875 C 6.257812 -3.6875 6.265625 -3.707031 6.265625 -3.75 Z M 6.796875 -3.6875 C 6.703125 -3.65625 6.65625 -3.613281 6.65625 -3.5625 L 6.796875 -3.5625 C 6.796875 -3.59375 6.800781 -3.617188 6.8125 -3.640625 Z M 2.9375 -3.28125 L 2.9375 -3.125 C 2.9375 -3.125 2.953125 -3.140625 2.984375 -3.171875 L 3.09375 -3.28125 Z M 3.46875 -3.28125 C 3.46875 -3.226562 3.515625 -3.203125 3.609375 -3.203125 L 3.609375 -3.265625 C 3.609375 -3.273438 3.617188 -3.28125 3.640625 -3.28125 Z M 4.890625 -3.203125 L 4.9375 -3.09375 L 5 -3.09375 L 4.921875 -3.203125 Z M 7.5 -3.125 C 7.5 -3.03125 7.539062 -2.984375 7.625 -2.984375 L 7.6875 -3.0625 L 7.71875 -3.125 Z M 6.546875 -3.0625 L 6.484375 -3.0625 L 6.46875 -2.984375 L 6.546875 -2.984375 Z M 5.671875 -2.90625 C 5.671875 -2.90625 5.675781 -2.910156 5.6875 -2.921875 C 5.695312 -2.929688 5.703125 -2.9375 5.703125 -2.9375 L 5.65625 -2.984375 L 5.59375 -2.984375 L 5.65625 -2.875 C 5.65625 -2.875 5.65625 -2.878906 5.65625 -2.890625 C 5.664062 -2.898438 5.671875 -2.90625 5.671875 -2.90625 Z M 3.3125 -2.609375 L 3.09375 -2.609375 L 3.09375 -2.46875 L 3.3125 -2.46875 Z M 0.8125 -2.015625 C 0.8125 -2.097656 0.835938 -2.148438 0.890625 -2.171875 L 0.546875 -2.171875 L 0.546875 -2.015625 Z M 10.703125 -2.0625 L 11.03125 -2.015625 L 11.03125 -2.09375 L 10.75 -2.171875 Z M 2.578125 -2.125 L 2.28125 -2.125 L 2.28125 -2.015625 L 2.578125 -2.015625 Z M 4.375 -2.015625 L 4.375 -1.875 L 4.59375 -1.875 L 4.59375 -2.015625 Z M 5.859375 -1.90625 C 5.847656 -1.863281 5.84375 -1.789062 5.84375 -1.6875 L 5.859375 -1.546875 L 6.25 -1.546875 L 6.296875 -1.65625 C 6.316406 -1.675781 6.328125 -1.710938 6.328125 -1.765625 L 6.1875 -1.90625 Z M 1.6875 -1.765625 L 1.984375 -1.765625 L 1.984375 -1.875 L 1.6875 -1.875 Z M 2.875 -1.1875 C 2.925781 -1.207031 2.96875 -1.257812 3 -1.34375 C 3.039062 -1.425781 3.0625 -1.515625 3.0625 -1.609375 C 3.0625 -1.710938 3.035156 -1.789062 2.984375 -1.84375 C 2.953125 -1.84375 2.878906 -1.816406 2.765625 -1.765625 C 2.835938 -1.597656 2.875 -1.40625 2.875 -1.1875 Z M 0.15625 -1.578125 C 0.175781 -1.523438 0.226562 -1.5 0.3125 -1.5 C 0.394531 -1.507812 0.453125 -1.535156 0.484375 -1.578125 Z M 1.296875 -1.46875 L 1.25 -1.46875 L 1.25 -1.578125 L 1 -1.578125 L 1 -1.46875 L 1.25 -1.46875 L 1.25 -1.359375 L 1.296875 -1.359375 Z M 4.125 -1.40625 C 3.976562 -1.40625 3.878906 -1.398438 3.828125 -1.390625 L 3.671875 -1.328125 L 3.53125 -1.296875 C 3.5625 -1.285156 3.59375 -1.253906 3.625 -1.203125 C 3.664062 -1.160156 3.695312 -1.125 3.71875 -1.09375 C 3.8125 -1.144531 3.898438 -1.210938 3.984375 -1.296875 Z M 2.28125 -1.171875 C 2.3125 -1.222656 2.328125 -1.273438 2.328125 -1.328125 L 1.875 -1.328125 L 1.875 -1.09375 C 2.019531 -1.09375 2.144531 -1.070312 2.25 -1.03125 Z M 7.25 -1.1875 L 7.4375 -1.1875 L 7.4375 -1.25 L 7.25 -1.25 Z M 10.703125 -0.84375 C 10.703125 -0.789062 10.679688 -0.765625 10.640625 -0.765625 C 10.703125 -0.765625 10.757812 -0.789062 10.8125 -0.84375 Z M 1.953125 -0.78125 L 1.734375 -0.78125 L 1.734375 -0.671875 L 1.953125 -0.671875 Z M 1.953125 -0.78125 "/></g></g></g></svg>