<svg xmlns="http://www.w3.org/2000/svg" xmlns:xlink="http://www.w3.org/1999/xlink" width="200" zoomAndPan="magnify" viewBox="0 0 150 74.999997" height="100" preserveAspectRatio="xMidYMid meet" version="1.0"><defs><g><g id="id1"/></g></defs><g fill="rgb(100%, 100%, 100%)" fill-opacity="1"><g transform="translate(3.689305, 27.581421)"><g><path d="M 8.699219 0.0742188 L 12.273438 0.0234375 L 12.796875 -0.199219 L 13.074219 -0.726562 L 13.074219 -3.25 L 12.796875 -3.75 L 12.273438 -3.972656 L 11.699219 -3.925781 L 11.222656 -4 L 9.949219 -4.023438 L 9.125 -3.925781 L 8.625 -3.972656 L 8.074219 -3.949219 L 7.597656 -4.023438 L 7.050781 -3.972656 L 6.523438 -4.222656 L 6.324219 -4.675781 L 6.324219 -6.25 L 6.550781 -6.773438 L 7 -7.050781 L 7.75 -7.074219 L 8.550781 -7 L 9.5 -7.050781 L 10.523438 -7.023438 L 11.023438 -7.074219 L 11.597656 -7.050781 L 12.097656 -7.25 L 12.273438 -7.75 L 12.347656 -10 L 12.097656 -10.699219 L 11.523438 -11.023438 L 10.050781 -11.023438 L 9.523438 -10.972656 L 8.472656 -11.050781 L 7.023438 -11 L 6.5 -11.222656 L 6.300781 -12 L 6.300781 -12.773438 L 6.523438 -13.25 L 7.074219 -13.449219 L 7.550781 -13.421875 L 8.023438 -13.523438 L 11.597656 -13.472656 L 12.074219 -13.5 L 12.597656 -13.796875 L 12.847656 -14.25 L 12.824219 -14.75 L 12.847656 -15.25 L 12.796875 -16.75 L 12.574219 -17.222656 L 12.074219 -17.421875 L 11.550781 -17.421875 L 11.097656 -17.523438 L 9.074219 -17.5 L 8.523438 -17.449219 L 8.023438 -17.5 L 7.597656 -17.472656 L 7.097656 -17.523438 L 5.050781 -17.472656 L 4.550781 -17.546875 L 4.074219 -17.449219 L 3.625 -17.5 L 3.125 -17.449219 L 2.625 -17.472656 L 2.101562 -17.273438 L 1.824219 -16.75 L 1.875 -15.796875 L 1.800781 -14.773438 L 1.875 -14.222656 L 1.824219 -11.773438 L 1.898438 -11.25 L 1.851562 -10.773438 L 1.824219 -8.722656 L 1.898438 -8.273438 L 1.875 -4.222656 L 1.824219 -3.75 L 1.898438 -3.25 L 1.824219 -1.523438 L 1.875 -0.976562 L 2.074219 -0.300781 L 2.824219 0.0234375 L 4.625 0.0507812 L 5.175781 0 L 5.625 0.0234375 L 6.648438 -0.0507812 L 7.125 0.0507812 L 7.699219 0.0742188 L 8.199219 0.0234375 Z M 8.699219 0.0742188 "/></g></g></g><g fill="rgb(100%, 100%, 100%)" fill-opacity="1"><g transform="translate(18.012031, 27.581421)"><g><path d="M 1.898438 -0.898438 L 2.074219 -0.25 L 2.550781 0 L 3.050781 0.0507812 L 4.097656 -0.0234375 L 5.074219 0.0234375 L 6.023438 -0.0234375 L 6.5 0.0507812 L 7.050781 0 L 12 0.0234375 L 12.472656 -0.226562 L 12.75 -1 L 12.722656 -3.023438 L 12.5 -3.773438 L 12.046875 -4.074219 L 11.523438 -4.023438 L 11.050781 -3.925781 L 10.523438 -4 L 9.5 -3.972656 L 9 -4.074219 L 8.550781 -4 L 7.574219 -4.050781 L 7.050781 -4 L 6.550781 -4.199219 L 6.347656 -4.699219 L 6.375 -13.171875 L 6.324219 -13.773438 L 6.375 -14.773438 L 6.300781 -16.199219 L 6.324219 -16.671875 L 6.074219 -17.222656 L 5.574219 -17.523438 L 4.597656 -17.523438 L 4.097656 -17.421875 L 3.101562 -17.523438 L 2.625 -17.449219 L 2.101562 -17.25 L 1.875 -16.699219 L 1.875 -13.199219 L 1.824219 -12.722656 L 1.875 -12.222656 L 1.800781 -11.300781 L 1.824219 -10.75 L 1.875 -10.273438 Z M 1.898438 -0.898438 "/></g></g></g><g fill="rgb(100%, 100%, 100%)" fill-opacity="1"><g transform="translate(31.459902, 27.581421)"><g><path d="M 8.699219 0.0742188 L 12.273438 0.0234375 L 12.796875 -0.199219 L 13.074219 -0.726562 L 13.074219 -3.25 L 12.796875 -3.75 L 12.273438 -3.972656 L 11.699219 -3.925781 L 11.222656 -4 L 9.949219 -4.023438 L 9.125 -3.925781 L 8.625 -3.972656 L 8.074219 -3.949219 L 7.597656 -4.023438 L 7.050781 -3.972656 L 6.523438 -4.222656 L 6.324219 -4.675781 L 6.324219 -6.25 L 6.550781 -6.773438 L 7 -7.050781 L 7.75 -7.074219 L 8.550781 -7 L 9.5 -7.050781 L 10.523438 -7.023438 L 11.023438 -7.074219 L 11.597656 -7.050781 L 12.097656 -7.25 L 12.273438 -7.75 L 12.347656 -10 L 12.097656 -10.699219 L 11.523438 -11.023438 L 10.050781 -11.023438 L 9.523438 -10.972656 L 8.472656 -11.050781 L 7.023438 -11 L 6.5 -11.222656 L 6.300781 -12 L 6.300781 -12.773438 L 6.523438 -13.25 L 7.074219 -13.449219 L 7.550781 -13.421875 L 8.023438 -13.523438 L 11.597656 -13.472656 L 12.074219 -13.5 L 12.597656 -13.796875 L 12.847656 -14.25 L 12.824219 -14.75 L 12.847656 -15.25 L 12.796875 -16.75 L 12.574219 -17.222656 L 12.074219 -17.421875 L 11.550781 -17.421875 L 11.097656 -17.523438 L 9.074219 -17.5 L 8.523438 -17.449219 L 8.023438 -17.5 L 7.597656 -17.472656 L 7.097656 -17.523438 L 5.050781 -17.472656 L 4.550781 -17.546875 L 4.074219 -17.449219 L 3.625 -17.5 L 3.125 -17.449219 L 2.625 -17.472656 L 2.101562 -17.273438 L 1.824219 -16.75 L 1.875 -15.796875 L 1.800781 -14.773438 L 1.875 -14.222656 L 1.824219 -11.773438 L 1.898438 -11.25 L 1.851562 -10.773438 L 1.824219 -8.722656 L 1.898438 -8.273438 L 1.875 -4.222656 L 1.824219 -3.75 L 1.898438 -3.25 L 1.824219 -1.523438 L 1.875 -0.976562 L 2.074219 -0.300781 L 2.824219 0.0234375 L 4.625 0.0507812 L 5.175781 0 L 5.625 0.0234375 L 6.648438 -0.0507812 L 7.125 0.0507812 L 7.699219 0.0742188 L 8.199219 0.0234375 Z M 8.699219 0.0742188 "/></g></g></g><g fill="rgb(100%, 100%, 100%)" fill-opacity="1"><g transform="translate(45.782629, 27.581421)"><g><path d="M 8.597656 0.226562 L 9.199219 0.0234375 L 9.75 -0.699219 L 10.074219 -1.398438 L 10.222656 -1.925781 L 10.699219 -2.726562 L 10.847656 -3.226562 L 11.097656 -3.75 L 11.25 -4.175781 L 11.523438 -4.625 L 12.5 -6.898438 L 12.671875 -7.449219 L 13.125 -8.25 L 15.296875 -13.398438 L 15.546875 -13.847656 L 15.972656 -14.75 L 16.097656 -15.222656 L 16.574219 -16.097656 L 16.75 -16.773438 L 16.625 -17.296875 L 16.171875 -17.398438 L 15.648438 -17.449219 L 15.199219 -17.523438 L 14.722656 -17.472656 L 14.222656 -17.449219 L 13.273438 -17.546875 L 12.722656 -17.222656 L 12.296875 -16.796875 L 9.972656 -11.300781 L 9.824219 -10.773438 L 9.597656 -10.347656 L 9.5 -9.898438 L 9.25 -9.449219 L 8.75 -8.050781 L 8.5 -7.597656 L 8.222656 -7.648438 L 7.597656 -9 L 7.5 -9.472656 L 7.074219 -10.324219 L 5.824219 -13.574219 L 5.175781 -14.898438 L 4.472656 -16.796875 L 4.050781 -17.222656 L 3.476562 -17.472656 L 2.050781 -17.523438 L 1.550781 -17.449219 L 0.601562 -17.449219 L 0.199219 -17.273438 L 0 -16.773438 L 0.800781 -14.648438 L 1.050781 -14.273438 L 1.175781 -13.796875 L 1.375 -13.296875 L 1.648438 -12.921875 L 1.824219 -12.398438 L 4.074219 -7.347656 L 4.222656 -6.847656 L 4.847656 -5.550781 L 5.023438 -5.023438 L 5.449219 -4.175781 L 5.722656 -3.726562 L 5.847656 -3.226562 L 6.847656 -0.851562 L 7.074219 -0.476562 L 7.574219 -0.0507812 L 8.125 0.148438 Z M 8.597656 0.226562 "/></g></g></g><g fill="rgb(100%, 100%, 100%)" fill-opacity="1"><g transform="translate(62.629955, 27.581421)"><g><path d="M 14.75 0.0507812 L 15.699219 -0.0234375 L 16.171875 0.0234375 L 16.949219 0 L 17.648438 -0.125 L 17.722656 -0.726562 L 17.546875 -1.300781 L 17.171875 -2.226562 L 16.5 -3.523438 L 16.148438 -4.449219 L 15.648438 -5.347656 L 14.699219 -7.625 L 14.449219 -8 L 14.199219 -8.472656 L 14.046875 -9.023438 L 13.824219 -9.398438 L 13.671875 -9.800781 L 13.148438 -10.722656 L 12.972656 -11.25 L 11.324219 -14.722656 L 11.175781 -15.222656 L 10.898438 -15.671875 L 10.75 -16.125 L 10.273438 -17 L 9.847656 -17.449219 L 9.023438 -17.699219 L 8.222656 -17.421875 L 7.773438 -17 L 7.550781 -16.574219 L 7.375 -16.074219 L 7.148438 -15.722656 L 6.148438 -13.421875 L 5.875 -13.046875 L 5.75 -12.546875 L 5.472656 -12.074219 L 5.324219 -11.625 L 2.773438 -6.273438 L 2.625 -5.722656 L 2.375 -5.347656 L 2.199219 -4.847656 L 1.75 -4.050781 L 1.375 -3.050781 L 1.101562 -2.699219 L 0.976562 -2.25 L 0.476562 -1.25 L 0.324219 -0.75 L 0.449219 -0.125 L 0.949219 0.0234375 L 1.925781 -0.0234375 L 2.425781 0.0234375 L 3.824219 -0.0234375 L 4.398438 -0.199219 L 4.875 -0.648438 L 5.324219 -1.476562 L 5.800781 -1.949219 L 6.324219 -2.226562 L 6.800781 -2.148438 L 7.847656 -2.25 L 8.300781 -2.175781 L 10.75 -2.199219 L 11.199219 -2.148438 L 11.75 -2.226562 L 12.296875 -1.949219 L 12.773438 -1.550781 L 13 -1.074219 L 13.148438 -0.625 L 13.648438 -0.25 L 14.222656 0 Z M 9.074219 -6.175781 L 8.574219 -6.273438 L 8 -6.222656 L 7.597656 -6.398438 L 7.574219 -6.875 L 8.75 -9.574219 L 9.023438 -9.800781 L 9.375 -9.597656 L 10.550781 -6.847656 L 10.449219 -6.398438 L 10.074219 -6.199219 Z M 9.074219 -6.175781 "/></g></g></g><g fill="rgb(100%, 100%, 100%)" fill-opacity="1"><g transform="translate(80.777079, 27.581421)"><g><path d="M 6.523438 0.0507812 L 8.199219 0 L 8.925781 -0.25 L 9.175781 -0.949219 L 9.25 -2.25 L 9.175781 -3.199219 L 9.222656 -3.726562 L 9.199219 -4.722656 L 9.25 -5.175781 L 9.175781 -5.722656 L 9.222656 -9.75 L 9.148438 -10.273438 L 9.222656 -12.449219 L 9.425781 -13.199219 L 9.898438 -13.5 L 10.875 -13.546875 L 11.796875 -13.421875 L 12.324219 -13.5 L 12.773438 -13.472656 L 13.199219 -13.75 L 13.5 -14.296875 L 13.523438 -16.671875 L 13.25 -17.171875 L 12.773438 -17.5 L 11.222656 -17.5 L 10.75 -17.546875 L 10.222656 -17.472656 L 9.75 -17.523438 L 7.722656 -17.421875 L 7.222656 -17.523438 L 6.75 -17.546875 L 6.222656 -17.472656 L 5.675781 -17.523438 L 5.222656 -17.421875 L 3.75 -17.5 L 2.976562 -17.421875 L 1.226562 -17.523438 L 0.75 -17.273438 L 0.449219 -16.699219 L 0.476562 -16.199219 L 0.425781 -14.949219 L 0.476562 -14.171875 L 0.699219 -13.722656 L 1.148438 -13.472656 L 1.648438 -13.523438 L 4.023438 -13.472656 L 4.5 -13.222656 L 4.773438 -12.722656 L 4.722656 -11.921875 L 4.773438 -11.222656 L 4.75 -10.675781 L 4.773438 -10.175781 L 4.722656 -9.472656 L 4.800781 -5.75 L 4.75 -5.25 L 4.722656 -3.226562 L 4.773438 -2.699219 L 4.75 -1.25 L 4.699219 -0.773438 L 5.023438 -0.226562 L 5.75 0.0234375 Z M 6.523438 0.0507812 "/></g></g></g><g fill="rgb(100%, 100%, 100%)" fill-opacity="1"><g transform="translate(94.749867, 27.581421)"><g><path d="M 8.699219 0.0742188 L 12.273438 0.0234375 L 12.796875 -0.199219 L 13.074219 -0.726562 L 13.074219 -3.25 L 12.796875 -3.75 L 12.273438 -3.972656 L 11.699219 -3.925781 L 11.222656 -4 L 9.949219 -4.023438 L 9.125 -3.925781 L 8.625 -3.972656 L 8.074219 -3.949219 L 7.597656 -4.023438 L 7.050781 -3.972656 L 6.523438 -4.222656 L 6.324219 -4.675781 L 6.324219 -6.25 L 6.550781 -6.773438 L 7 -7.050781 L 7.75 -7.074219 L 8.550781 -7 L 9.5 -7.050781 L 10.523438 -7.023438 L 11.023438 -7.074219 L 11.597656 -7.050781 L 12.097656 -7.25 L 12.273438 -7.75 L 12.347656 -10 L 12.097656 -10.699219 L 11.523438 -11.023438 L 10.050781 -11.023438 L 9.523438 -10.972656 L 8.472656 -11.050781 L 7.023438 -11 L 6.5 -11.222656 L 6.300781 -12 L 6.300781 -12.773438 L 6.523438 -13.25 L 7.074219 -13.449219 L 7.550781 -13.421875 L 8.023438 -13.523438 L 11.597656 -13.472656 L 12.074219 -13.5 L 12.597656 -13.796875 L 12.847656 -14.25 L 12.824219 -14.75 L 12.847656 -15.25 L 12.796875 -16.75 L 12.574219 -17.222656 L 12.074219 -17.421875 L 11.550781 -17.421875 L 11.097656 -17.523438 L 9.074219 -17.5 L 8.523438 -17.449219 L 8.023438 -17.5 L 7.597656 -17.472656 L 7.097656 -17.523438 L 5.050781 -17.472656 L 4.550781 -17.546875 L 4.074219 -17.449219 L 3.625 -17.5 L 3.125 -17.449219 L 2.625 -17.472656 L 2.101562 -17.273438 L 1.824219 -16.75 L 1.875 -15.796875 L 1.800781 -14.773438 L 1.875 -14.222656 L 1.824219 -11.773438 L 1.898438 -11.25 L 1.851562 -10.773438 L 1.824219 -8.722656 L 1.898438 -8.273438 L 1.875 -4.222656 L 1.824219 -3.75 L 1.898438 -3.25 L 1.824219 -1.523438 L 1.875 -0.976562 L 2.074219 -0.300781 L 2.824219 0.0234375 L 4.625 0.0507812 L 5.175781 0 L 5.625 0.0234375 L 6.648438 -0.0507812 L 7.125 0.0507812 L 7.699219 0.0742188 L 8.199219 0.0234375 Z M 8.699219 0.0742188 "/></g></g></g><path stroke-linecap="butt" transform="matrix(0.75, 0, 0, 0.75, 2.584439, 5.476556)" fill="none" stroke-linejoin="miter" d="M 11.595749 28.098969 L 16.361375 28.03126 L 17.0645 27.729177 L 17.429083 27.03126 L 17.429083 23.671885 L 17.0645 23.005218 L 16.361375 22.703135 L 15.600958 22.765635 L 14.965541 22.671885 L 13.262416 22.635427 L 12.163458 22.765635 L 11.496791 22.703135 L 10.767624 22.734385 L 10.132207 22.635427 L 9.397832 22.703135 L 8.699916 22.369802 L 8.429082 21.765635 L 8.429082 19.666676 L 8.731166 18.96876 L 9.335332 18.598968 L 10.335333 18.567718 L 11.397833 18.666676 L 12.663458 18.598968 L 14.028041 18.635426 L 14.694708 18.567718 L 15.47075 18.598968 L 16.127 18.333343 L 16.361375 17.666676 L 16.460333 14.671884 L 16.127 13.734384 L 15.361375 13.302093 L 13.403041 13.302093 L 12.699916 13.369801 L 11.304083 13.270843 L 9.366582 13.338551 L 8.668666 13.036468 L 8.397832 12.000009 L 8.397832 10.968759 L 8.699916 10.333342 L 9.429082 10.067717 L 10.064499 10.098967 L 10.699916 9.968759 L 15.47075 10.031259 L 16.09575 10.000009 L 16.793666 9.604176 L 17.127 9.000009 L 17.09575 8.333342 L 17.127 7.666675 L 17.0645 5.671884 L 16.762416 5.036467 L 16.09575 4.770842 L 15.397833 4.770842 L 14.804083 4.640634 L 12.100958 4.671884 L 11.366583 4.734384 L 10.699916 4.671884 L 10.132207 4.703134 L 9.465541 4.640634 L 6.731166 4.703134 L 6.064499 4.604175 L 5.43429 4.734384 L 4.835332 4.671884 L 4.168665 4.734384 L 3.49679 4.703134 L 2.798874 4.973967 L 2.43429 5.671884 L 2.49679 6.9323 L 2.40304 8.302092 L 2.49679 9.031259 L 2.43429 12.302092 L 2.533249 13.005218 L 2.46554 13.635426 L 2.43429 16.364593 L 2.533249 16.963551 L 2.49679 22.369802 L 2.43429 23.005218 L 2.533249 23.671885 L 2.43429 25.963552 L 2.49679 26.697927 L 2.767624 27.598969 L 3.767624 28.03126 L 6.168665 28.06251 L 6.897832 28.00001 L 7.501999 28.03126 L 8.871791 27.932302 L 9.496791 28.06251 L 10.267624 28.098969 L 10.929083 28.03126 Z M 21.627 26.802094 L 21.861375 27.666677 L 22.496792 28.00001 L 23.163459 28.06251 L 24.5645 27.96876 L 25.861375 28.03126 L 27.127001 27.96876 L 27.762417 28.06251 L 28.496792 28.00001 L 35.095751 28.03126 L 35.731168 27.697927 L 36.095751 26.666677 L 36.064501 23.963552 L 35.762418 22.96876 L 35.158251 22.56251 L 34.460334 22.635427 L 33.824918 22.765635 L 33.127001 22.671885 L 31.757209 22.703135 L 31.100959 22.56251 L 30.496792 22.671885 L 29.194709 22.598968 L 28.496792 22.671885 L 27.830126 22.401052 L 27.559292 21.734385 L 27.590542 10.432301 L 27.528042 9.635426 L 27.590542 8.302092 L 27.496792 6.406259 L 27.528042 5.770842 L 27.194709 5.036467 L 26.528042 4.640634 L 25.231167 4.640634 L 24.5645 4.770842 L 23.231167 4.640634 L 22.59575 4.734384 L 21.897833 5.005217 L 21.59575 5.734384 L 21.59575 10.401051 L 21.528042 11.036467 L 21.59575 11.703134 L 21.496792 12.937509 L 21.528042 13.671884 L 21.59575 14.307301 Z M 48.621794 28.098969 L 53.392628 28.03126 L 54.090544 27.729177 L 54.455128 27.03126 L 54.455128 23.671885 L 54.090544 23.005218 L 53.392628 22.703135 L 52.627003 22.765635 L 51.991586 22.671885 L 50.293669 22.635427 L 49.194711 22.765635 L 48.522836 22.703135 L 47.793669 22.734385 L 47.158252 22.635427 L 46.423877 22.703135 L 45.72596 22.369802 L 45.455127 21.765635 L 45.455127 19.666676 L 45.75721 18.96876 L 46.361377 18.598968 L 47.361377 18.567718 L 48.429086 18.666676 L 49.689502 18.598968 L 51.054086 18.635426 L 51.720753 18.567718 L 52.496794 18.598968 L 53.153044 18.333343 L 53.392628 17.666676 L 53.491586 14.671884 L 53.153044 13.734384 L 52.392628 13.302093 L 50.429086 13.302093 L 49.731169 13.369801 L 48.330127 13.270843 L 46.392627 13.338551 L 45.69471 13.036468 L 45.423877 12.000009 L 45.423877 10.968759 L 45.72596 10.333342 L 46.460335 10.067717 L 47.095752 10.098967 L 47.725961 9.968759 L 52.496794 10.031259 L 53.121794 10.000009 L 53.824919 9.604176 L 54.158253 9.000009 L 54.121794 8.333342 L 54.158253 7.666675 L 54.090544 5.671884 L 53.788461 5.036467 L 53.121794 4.770842 L 52.423878 4.770842 L 51.830128 4.640634 L 49.127002 4.671884 L 48.392627 4.734384 L 47.725961 4.671884 L 47.158252 4.703134 L 46.491585 4.640634 L 43.75721 4.703134 L 43.090544 4.604175 L 42.465543 4.734384 L 41.861377 4.671884 L 41.19471 4.734384 L 40.528043 4.703134 L 39.824918 4.973967 L 39.460335 5.671884 L 39.528043 6.9323 L 39.429085 8.302092 L 39.528043 9.031259 L 39.460335 12.302092 L 39.559293 13.005218 L 39.491585 13.635426 L 39.460335 16.364593 L 39.559293 16.963551 L 39.528043 22.369802 L 39.460335 23.005218 L 39.559293 23.671885 L 39.460335 25.963552 L 39.528043 26.697927 L 39.793668 27.598969 L 40.793668 28.03126 L 43.19471 28.06251 L 43.929085 28.00001 L 44.528044 28.03126 L 45.897835 27.932302 L 46.522835 28.06251 L 47.298877 28.098969 L 47.955127 28.03126 Z M 67.590546 28.302094 L 68.387421 28.03126 L 69.121796 27.06251 L 69.559296 26.135427 L 69.752004 25.43751 L 70.387421 24.369802 L 70.590546 23.703135 L 70.923879 23.005218 L 71.121796 22.432302 L 71.486379 21.833343 L 72.788463 18.807301 L 73.022838 18.06251 L 73.621796 17.00001 L 76.522838 10.140634 L 76.856171 9.536467 L 77.418671 8.333342 L 77.590546 7.708342 L 78.225963 6.536467 L 78.45513 5.640634 L 78.288463 4.937509 L 77.689505 4.802092 L 76.98638 4.734384 L 76.387421 4.640634 L 75.757213 4.703134 L 75.090546 4.734384 L 73.824921 4.604175 L 73.090546 5.036467 L 72.522838 5.598967 L 69.418671 12.937509 L 69.225962 13.635426 L 68.923879 14.197926 L 68.788462 14.802093 L 68.460337 15.401051 L 67.793671 17.265635 L 67.460337 17.869801 L 67.095754 17.802093 L 66.257212 16.000009 L 66.127004 15.369801 L 65.554087 14.234384 L 63.88742 9.901051 L 63.022837 8.135425 L 62.090545 5.598967 L 61.528045 5.036467 L 60.752003 4.703134 L 58.85617 4.640634 L 58.189503 4.734384 L 56.923878 4.734384 L 56.392628 4.973967 L 56.127003 5.640634 L 57.189503 8.468759 L 57.522836 8.968759 L 57.694711 9.604176 L 57.955128 10.270842 L 58.319711 10.765634 L 58.559295 11.463551 L 61.559295 18.203135 L 61.757212 18.869801 L 62.595753 20.604176 L 62.819712 21.302093 L 63.392629 22.432302 L 63.757212 23.036468 L 63.91867 23.703135 L 65.252004 26.869802 L 65.554087 27.364594 L 66.220754 27.932302 L 66.955129 28.203135 Z M 98.257215 28.06251 L 99.517631 27.96876 L 100.153048 28.03126 L 101.184298 28.00001 L 102.121798 27.838552 L 102.215548 27.03126 L 101.981173 26.265635 L 101.486382 25.03126 L 100.580132 23.296885 L 100.11659 22.067718 L 99.449923 20.864593 L 98.184298 17.838551 L 97.845756 17.333343 L 97.52284 16.697926 L 97.319715 15.963551 L 97.017631 15.468759 L 96.824923 14.932301 L 96.11659 13.703134 L 95.887423 13.005218 L 93.684298 8.364592 L 93.486381 7.708342 L 93.121798 7.104175 L 92.918673 6.500009 L 92.283256 5.33855 L 91.720756 4.734384 L 90.621797 4.40105 L 89.554089 4.770842 L 88.955131 5.33855 L 88.653047 5.90105 L 88.418672 6.567717 L 88.116589 7.036467 L 86.788464 10.098967 L 86.42388 10.604176 L 86.252005 11.270842 L 85.887422 11.906259 L 85.684297 12.500009 L 82.288463 19.635426 L 82.085338 20.369801 L 81.752005 20.864593 L 81.51763 21.53126 L 80.92388 22.598968 L 80.418672 23.932302 L 80.054088 24.401052 L 79.887422 24.994802 L 79.220755 26.333344 L 79.01763 27.00001 L 79.189505 27.838552 L 79.856172 28.03126 L 81.153047 27.96876 L 81.819713 28.03126 L 83.689505 27.96876 L 84.45513 27.729177 L 85.090547 27.135427 L 85.684297 26.03126 L 86.319714 25.40626 L 87.01763 25.03126 L 87.653047 25.135427 L 89.054089 24.994802 L 89.653047 25.104177 L 92.918673 25.072927 L 93.517631 25.135427 L 94.252006 25.03126 L 94.986381 25.40626 L 95.616589 25.932302 L 95.918673 26.567719 L 96.11659 27.171885 L 96.783256 27.666677 L 97.55409 28.00001 Z M 90.689506 19.765635 L 90.022839 19.635426 L 89.257214 19.697926 L 88.720756 19.463551 L 88.684297 18.838551 L 90.257214 15.234384 L 90.621797 14.932301 L 91.085339 15.197926 L 92.658256 18.869801 L 92.517631 19.463551 L 92.022839 19.734385 Z M 111.481174 28.06251 L 113.710341 28.00001 L 114.679091 27.666677 L 115.012424 26.729177 L 115.121799 24.994802 L 115.012424 23.734385 L 115.080133 23.036468 L 115.048883 21.703135 L 115.121799 21.098968 L 115.012424 20.369801 L 115.080133 15.005218 L 114.981174 14.307301 L 115.080133 11.401051 L 115.345758 10.401051 L 115.981174 10.000009 L 117.283258 9.937509 L 118.512425 10.098967 L 119.210341 10.000009 L 119.814508 10.031259 L 120.382216 9.666676 L 120.783258 8.932301 L 120.814508 5.770842 L 120.449925 5.104175 L 119.814508 4.671884 L 117.7468 4.671884 L 117.111383 4.604175 L 116.413466 4.703134 L 115.778049 4.640634 L 113.085341 4.770842 L 112.418674 4.640634 L 111.783257 4.604175 L 111.085341 4.703134 L 110.350966 4.640634 L 109.746799 4.770842 L 107.778049 4.671884 L 106.746799 4.770842 L 104.418674 4.640634 L 103.783257 4.973967 L 103.387423 5.734384 L 103.418673 6.406259 L 103.350965 8.072925 L 103.418673 9.104176 L 103.720757 9.697926 L 104.314507 10.031259 L 104.981174 9.968759 L 108.14784 10.031259 L 108.783257 10.364592 L 109.147841 11.036467 L 109.080132 12.098967 L 109.147841 13.036468 L 109.116591 13.765634 L 109.147841 14.437509 L 109.080132 15.369801 L 109.179091 20.333343 L 109.116591 21.00001 L 109.080132 23.703135 L 109.147841 24.401052 L 109.116591 26.333344 L 109.048882 26.96876 L 109.481174 27.697927 L 110.449924 28.03126 Z M 133.007218 28.098969 L 137.778051 28.03126 L 138.475968 27.729177 L 138.84576 27.03126 L 138.84576 23.671885 L 138.475968 23.005218 L 137.778051 22.703135 L 137.012426 22.765635 L 136.377009 22.671885 L 134.679093 22.635427 L 133.580134 22.765635 L 132.913468 22.703135 L 132.179092 22.734385 L 131.543676 22.635427 L 130.814509 22.703135 L 130.111384 22.369802 L 129.845759 21.765635 L 129.845759 19.666676 L 130.147842 18.96876 L 130.746801 18.598968 L 131.746801 18.567718 L 132.814509 18.666676 L 134.074926 18.598968 L 135.444718 18.635426 L 136.111384 18.567718 L 136.882218 18.598968 L 137.543676 18.333343 L 137.778051 17.666676 L 137.87701 14.671884 L 137.543676 13.734384 L 136.778051 13.302093 L 134.814509 13.302093 L 134.116593 13.369801 L 132.715551 13.270843 L 130.778051 13.338551 L 130.080134 13.036468 L 129.809301 12.000009 L 129.809301 10.968759 L 130.111384 10.333342 L 130.845759 10.067717 L 131.481176 10.098967 L 132.116592 9.968759 L 136.882218 10.031259 L 137.507218 10.000009 L 138.210343 9.604176 L 138.543676 9.000009 L 138.512426 8.333342 L 138.543676 7.666675 L 138.475968 5.671884 L 138.179093 5.036467 L 137.507218 4.770842 L 136.809301 4.770842 L 136.215551 4.640634 L 133.512426 4.671884 L 132.783259 4.734384 L 132.116592 4.671884 L 131.543676 4.703134 L 130.877009 4.640634 L 128.142634 4.703134 L 127.475967 4.604175 L 126.850967 4.734384 L 126.2468 4.671884 L 125.580134 4.734384 L 124.913467 4.703134 L 124.21555 4.973967 L 123.845758 5.671884 L 123.913467 6.9323 L 123.814508 8.302092 L 123.913467 9.031259 L 123.845758 12.302092 L 123.944717 13.005218 L 123.882217 13.635426 L 123.845758 16.364593 L 123.944717 16.963551 L 123.913467 22.369802 L 123.845758 23.005218 L 123.944717 23.671885 L 123.845758 25.963552 L 123.913467 26.697927 L 124.179092 27.598969 L 125.179092 28.03126 L 127.580134 28.06251 L 128.314509 28.00001 L 128.918676 28.03126 L 130.283259 27.932302 L 130.908259 28.06251 L 131.684301 28.098969 L 132.340551 28.03126 Z M 133.007218 28.098969 " stroke="rgb(96.859741%, 70.199585%, 16.859436%)" stroke-width="1.354182" stroke-opacity="1" stroke-miterlimit="4"/><g fill="rgb(100%, 87.449646%, 16.859436%)" fill-opacity="1"><g transform="translate(3.778844, 50.922231)"><g><path d="M 15.328125 -16.84375 C 14.828125 -17.382812 14.289062 -17.800781 13.71875 -18.09375 C 13.15625 -18.382812 12.335938 -18.53125 11.265625 -18.53125 C 10.191406 -18.53125 9.394531 -18.375 8.875 -18.0625 C 8.351562 -17.75 8.09375 -17.375 8.09375 -16.9375 C 8.09375 -16.195312 8.753906 -15.671875 10.078125 -15.359375 L 15.234375 -14.03125 C 17.117188 -13.550781 18.535156 -12.71875 19.484375 -11.53125 C 20.441406 -10.34375 20.921875 -8.921875 20.921875 -7.265625 C 20.921875 -5.734375 20.515625 -4.394531 19.703125 -3.25 C 18.898438 -2.113281 17.75 -1.234375 16.25 -0.609375 C 14.75 0.00390625 12.992188 0.3125 10.984375 0.3125 C 8.710938 0.3125 6.640625 -0.0625 4.765625 -0.8125 C 2.890625 -1.570312 1.59375 -2.5625 0.875 -3.78125 C 0.769531 -3.988281 0.71875 -4.144531 0.71875 -4.25 C 0.71875 -4.457031 0.832031 -4.644531 1.0625 -4.8125 L 4.25 -7.015625 C 4.476562 -7.160156 4.6875 -7.234375 4.875 -7.234375 C 5.101562 -7.234375 5.289062 -7.140625 5.4375 -6.953125 C 6.132812 -6.035156 6.84375 -5.390625 7.5625 -5.015625 C 8.289062 -4.648438 9.253906 -4.46875 10.453125 -4.46875 C 11.609375 -4.46875 12.523438 -4.628906 13.203125 -4.953125 C 13.878906 -5.273438 14.21875 -5.710938 14.21875 -6.265625 C 14.21875 -6.660156 14.050781 -7.003906 13.71875 -7.296875 C 13.382812 -7.585938 12.894531 -7.800781 12.25 -7.9375 L 7.546875 -9.09375 C 5.679688 -9.550781 4.195312 -10.40625 3.09375 -11.65625 C 2 -12.90625 1.453125 -14.347656 1.453125 -15.984375 C 1.453125 -17.328125 1.84375 -18.5625 2.625 -19.6875 C 3.414062 -20.8125 4.535156 -21.695312 5.984375 -22.34375 C 7.429688 -23 9.109375 -23.328125 11.015625 -23.328125 C 12.878906 -23.328125 14.609375 -23.019531 16.203125 -22.40625 C 17.796875 -21.800781 18.941406 -20.992188 19.640625 -19.984375 C 19.785156 -19.796875 19.859375 -19.617188 19.859375 -19.453125 C 19.859375 -19.304688 19.785156 -19.171875 19.640625 -19.046875 L 16.265625 -16.609375 C 16.160156 -16.523438 16.046875 -16.484375 15.921875 -16.484375 C 15.773438 -16.484375 15.578125 -16.601562 15.328125 -16.84375 Z M 15.328125 -16.84375 "/></g></g></g><g fill="rgb(100%, 87.449646%, 16.859436%)" fill-opacity="1"><g transform="translate(25.52771, 50.922231)"><g><path d="M 0.875 -22.3125 C 0.875 -22.519531 0.9375 -22.691406 1.0625 -22.828125 C 1.195312 -22.960938 1.390625 -23.03125 1.640625 -23.03125 L 20.203125 -23.03125 C 20.453125 -23.03125 20.644531 -22.960938 20.78125 -22.828125 C 20.914062 -22.691406 20.984375 -22.519531 20.984375 -22.3125 L 20.984375 -18.625 C 20.984375 -18.226562 20.753906 -18.03125 20.296875 -18.03125 L 14.796875 -18.03125 C 14.546875 -18.03125 14.421875 -17.925781 14.421875 -17.71875 L 14.421875 -0.6875 C 14.421875 -0.457031 14.367188 -0.285156 14.265625 -0.171875 C 14.171875 -0.0546875 14.03125 0 13.84375 0 L 7.9375 0 C 7.570312 0 7.390625 -0.207031 7.390625 -0.625 L 7.390625 -17.59375 C 7.390625 -17.882812 7.273438 -18.03125 7.046875 -18.03125 L 1.578125 -18.03125 C 1.109375 -18.03125 0.875 -18.226562 0.875 -18.625 Z M 0.875 -22.3125 "/></g></g></g><g fill="rgb(100%, 87.449646%, 16.859436%)" fill-opacity="1"><g transform="translate(47.369654, 50.922231)"><g><path d="M 21.75 -1 C 21.789062 -0.914062 21.8125 -0.800781 21.8125 -0.65625 C 21.8125 -0.46875 21.753906 -0.3125 21.640625 -0.1875 C 21.523438 -0.0625 21.375 0 21.1875 0 L 15.171875 0 C 14.734375 0 14.457031 -0.21875 14.34375 -0.65625 L 11.421875 -8.65625 C 11.359375 -8.820312 11.253906 -8.945312 11.109375 -9.03125 C 10.960938 -9.113281 10.742188 -9.15625 10.453125 -9.15625 L 9.03125 -9.15625 C 8.90625 -9.15625 8.8125 -9.113281 8.75 -9.03125 C 8.6875 -8.945312 8.65625 -8.875 8.65625 -8.8125 L 8.65625 -0.90625 C 8.65625 -0.570312 8.570312 -0.335938 8.40625 -0.203125 C 8.238281 -0.0664062 7.984375 0 7.640625 0 L 2.421875 0 C 2.109375 0 1.894531 -0.0625 1.78125 -0.1875 C 1.664062 -0.3125 1.609375 -0.507812 1.609375 -0.78125 L 1.609375 -22.3125 C 1.609375 -22.789062 1.804688 -23.03125 2.203125 -23.03125 L 12.5625 -23.03125 C 15.5625 -23.03125 17.890625 -22.453125 19.546875 -21.296875 C 21.203125 -20.148438 22.03125 -18.535156 22.03125 -16.453125 C 22.03125 -15.023438 21.648438 -13.75 20.890625 -12.625 C 20.140625 -11.507812 19.164062 -10.722656 17.96875 -10.265625 C 17.84375 -10.203125 17.78125 -10.101562 17.78125 -9.96875 C 17.78125 -9.90625 17.800781 -9.8125 17.84375 -9.6875 Z M 12.28125 -13.78125 C 13.070312 -13.78125 13.675781 -13.976562 14.09375 -14.375 C 14.519531 -14.78125 14.734375 -15.328125 14.734375 -16.015625 C 14.734375 -16.773438 14.476562 -17.367188 13.96875 -17.796875 C 13.46875 -18.222656 12.847656 -18.4375 12.109375 -18.4375 L 9.375 -18.4375 C 9.101562 -18.4375 8.914062 -18.390625 8.8125 -18.296875 C 8.707031 -18.203125 8.65625 -18.039062 8.65625 -17.8125 L 8.65625 -14.421875 C 8.65625 -14.203125 8.691406 -14.039062 8.765625 -13.9375 C 8.835938 -13.832031 8.976562 -13.78125 9.1875 -13.78125 Z M 12.28125 -13.78125 "/></g></g></g><g fill="rgb(100%, 87.449646%, 16.859436%)" fill-opacity="1"><g transform="translate(70.29749, 50.922231)"><g><path d="M 1.609375 -22.3125 C 1.609375 -22.789062 1.804688 -23.03125 2.203125 -23.03125 L 18.953125 -23.03125 C 19.328125 -23.03125 19.515625 -22.8125 19.515625 -22.375 L 19.484375 -18.78125 C 19.484375 -18.21875 19.21875 -17.9375 18.6875 -17.9375 L 9.375 -17.9375 C 8.894531 -17.9375 8.65625 -17.738281 8.65625 -17.34375 L 8.65625 -14.703125 C 8.65625 -14.503906 8.707031 -14.347656 8.8125 -14.234375 C 8.914062 -14.117188 9.050781 -14.0625 9.21875 -14.0625 L 14.796875 -14.0625 C 15.234375 -14.0625 15.453125 -13.851562 15.453125 -13.4375 L 15.453125 -9.59375 C 15.453125 -9.238281 15.265625 -9.0625 14.890625 -9.0625 L 9.15625 -9.0625 C 9.007812 -9.0625 8.890625 -9.019531 8.796875 -8.9375 C 8.703125 -8.851562 8.65625 -8.75 8.65625 -8.625 L 8.65625 -5.53125 C 8.65625 -5.363281 8.679688 -5.25 8.734375 -5.1875 C 8.785156 -5.125 8.882812 -5.09375 9.03125 -5.09375 L 19.109375 -5.09375 C 19.566406 -5.09375 19.796875 -4.894531 19.796875 -4.5 L 19.796875 -0.6875 C 19.796875 -0.476562 19.734375 -0.3125 19.609375 -0.1875 C 19.484375 -0.0625 19.296875 0 19.046875 0 L 2.453125 0 C 2.140625 0 1.921875 -0.0625 1.796875 -0.1875 C 1.671875 -0.3125 1.609375 -0.507812 1.609375 -0.78125 Z M 1.609375 -22.3125 "/></g></g></g><g fill="rgb(100%, 87.449646%, 16.859436%)" fill-opacity="1"><g transform="translate(91.115586, 50.922231)"><g><path d="M 1.328125 0 C 1.171875 0 1.039062 -0.0546875 0.9375 -0.171875 C 0.832031 -0.285156 0.78125 -0.445312 0.78125 -0.65625 C 0.78125 -0.800781 0.8125 -0.960938 0.875 -1.140625 L 8.375 -22.3125 C 8.476562 -22.582031 8.59375 -22.769531 8.71875 -22.875 C 8.84375 -22.976562 9.039062 -23.03125 9.3125 -23.03125 L 15.421875 -23.03125 C 15.671875 -23.03125 15.894531 -22.953125 16.09375 -22.796875 C 16.289062 -22.640625 16.441406 -22.4375 16.546875 -22.1875 L 23.984375 -1.0625 C 24.023438 -0.894531 24.046875 -0.769531 24.046875 -0.6875 C 24.046875 -0.5 24.003906 -0.335938 23.921875 -0.203125 C 23.835938 -0.0664062 23.710938 0 23.546875 0 L 17.46875 0 C 17.113281 0 16.882812 -0.175781 16.78125 -0.53125 L 15.578125 -4.09375 C 15.515625 -4.238281 15.457031 -4.335938 15.40625 -4.390625 C 15.351562 -4.441406 15.253906 -4.46875 15.109375 -4.46875 L 8.53125 -4.46875 C 8.28125 -4.46875 8.125 -4.351562 8.0625 -4.125 L 6.796875 -0.46875 C 6.671875 -0.15625 6.421875 0 6.046875 0 Z M 13.5625 -9.75 C 13.789062 -9.75 13.90625 -9.847656 13.90625 -10.046875 C 13.90625 -10.085938 13.882812 -10.191406 13.84375 -10.359375 L 11.984375 -15.671875 C 11.941406 -15.773438 11.878906 -15.828125 11.796875 -15.828125 C 11.710938 -15.828125 11.648438 -15.773438 11.609375 -15.671875 L 9.71875 -10.390625 C 9.675781 -10.304688 9.65625 -10.203125 9.65625 -10.078125 C 9.65625 -9.859375 9.773438 -9.75 10.015625 -9.75 Z M 13.5625 -9.75 "/></g></g></g><g fill="rgb(100%, 87.449646%, 16.859436%)" fill-opacity="1"><g transform="translate(115.904946, 50.922231)"><g><path d="M 2.421875 0 C 2.171875 0 1.972656 -0.078125 1.828125 -0.234375 C 1.679688 -0.390625 1.609375 -0.601562 1.609375 -0.875 L 1.609375 -22.3125 C 1.609375 -22.5625 1.660156 -22.742188 1.765625 -22.859375 C 1.867188 -22.972656 2.035156 -23.03125 2.265625 -23.03125 L 10.953125 -23.03125 C 11.222656 -23.03125 11.414062 -22.992188 11.53125 -22.921875 C 11.644531 -22.847656 11.742188 -22.695312 11.828125 -22.46875 L 15.046875 -12.59375 C 15.109375 -12.425781 15.179688 -12.34375 15.265625 -12.34375 C 15.328125 -12.34375 15.390625 -12.425781 15.453125 -12.59375 L 18.34375 -22.125 C 18.507812 -22.726562 18.785156 -23.03125 19.171875 -23.03125 L 28.140625 -23.03125 C 28.515625 -23.03125 28.703125 -22.8125 28.703125 -22.375 L 28.703125 -0.90625 C 28.703125 -0.570312 28.625 -0.335938 28.46875 -0.203125 C 28.3125 -0.0664062 28.054688 0 27.703125 0 L 22.46875 0 C 22.15625 0 21.941406 -0.0625 21.828125 -0.1875 C 21.710938 -0.3125 21.65625 -0.507812 21.65625 -0.78125 L 21.65625 -14.703125 C 21.65625 -14.867188 21.613281 -14.953125 21.53125 -14.953125 C 21.425781 -14.953125 21.34375 -14.859375 21.28125 -14.671875 L 16.8125 -0.5625 C 16.675781 -0.1875 16.429688 0 16.078125 0 L 12.8125 0 C 12.4375 0 12.191406 -0.1875 12.078125 -0.5625 L 7.609375 -14.421875 C 7.546875 -14.628906 7.472656 -14.734375 7.390625 -14.734375 C 7.285156 -14.734375 7.234375 -14.625 7.234375 -14.40625 L 7.234375 -0.6875 C 7.234375 -0.414062 7.191406 -0.234375 7.109375 -0.140625 C 7.023438 -0.046875 6.835938 0 6.546875 0 Z M 2.421875 0 "/></g></g></g></svg>